<?xml version="1.0" encoding="UTF-8"?>
<svg xmlns="http://www.w3.org/2000/svg" width="256" height="235" viewBox="0 0 256 235" fill="none">
  <mask id="mask0_209_436" style="mask-type:alpha" maskUnits="userSpaceOnUse" x="0" y="0" width="256" height="235">
    <g clip-path="url(#clip0_209_436)">
      <path d="M90.8153 99.6328L90.7891 99.7248V99.6328H90.8153Z" fill="#CBA653"></path>
      <path fill-rule="evenodd" clip-rule="evenodd" d="M255.018 97.0967C254.968 96.6618 254.917 96.2281 254.862 95.7956C245.247 19.2731 157.571 -20.6406 90.9727 10.7765V98.8972C91.34 97.0684 91.7797 95.2974 92.2869 93.5844C107.385 42.5932 182.399 42.8916 195.508 97.1098H255.018V97.0967ZM253.538 95.7956C243.979 20.6749 158.049 -18.8011 92.2869 11.6132V89.421C110.146 41.296 182.778 42.6218 196.534 95.7956H253.538Z" fill="#C5A053"></path>
      <path fill-rule="evenodd" clip-rule="evenodd" d="M194.352 141.387C186.453 164.952 167.317 179.015 143.332 179.015C107.453 179.015 88.6987 148.038 88.6987 117.429C88.6987 112.246 89.2373 107.13 90.2487 102.205C90.4196 101.373 90.6039 100.546 90.8015 99.7256L37.5742 155.371C48.5482 195.482 79.9852 234.2 143.319 234.2C199.346 234.2 242.808 198.36 254.006 142.899L254.702 139.324H194.969L194.996 139.35L194.352 141.387ZM195.967 140.638L195.601 141.794L195.598 141.805C187.527 165.882 167.906 180.329 143.332 180.329C124.97 180.329 110.94 172.384 101.531 160.516C92.1466 148.68 87.3844 132.984 87.3844 117.429C87.3844 112.858 87.796 108.339 88.5757 103.954L39.04 155.74C44.5281 175.351 54.9625 194.516 71.6668 208.829C88.5569 223.302 111.939 232.886 143.319 232.886C198.71 232.886 241.64 197.497 252.717 142.642L252.717 142.639L253.107 140.638H195.967Z" fill="#C5A053"></path>
      <path fill-rule="evenodd" clip-rule="evenodd" d="M29.7207 124.211V124.907L38.0794 132.819L69.9106 99.2135L69.8975 99.1872L59.2389 89.1069L43.205 106.074L43.2313 98.1358C43.2575 86.1498 42.009 76.9632 35.924 71.2199C26.9739 62.7298 15.4874 63.2686 6.65558 72.5867C0.215738 79.4077 -1.41394 86.7806 1.17514 97.2684L1.55628 98.7403L14.8828 96.0987L14.528 94.5084C13.0954 88.2 14.2388 85.4927 16.9199 82.6802C18.1684 81.3396 19.8244 80.4196 21.3884 80.1305C23.2415 79.7757 24.8711 80.3276 26.3037 81.6945C30.4173 85.5847 30.2596 92.4451 29.9442 106.126L29.9327 106.578C29.8038 111.635 29.6569 117.396 29.7207 124.211ZM27.2088 80.7416C29.59 82.9947 30.6405 86.0459 31.091 90.0934C31.5362 94.0935 31.4161 99.3019 31.2604 106.055L31.258 106.16C31.2542 106.308 31.2504 106.457 31.2466 106.607C31.1177 111.665 30.9713 117.407 31.0349 124.198L31.035 124.211L31.035 124.341L38.0287 130.961L68.0589 99.2573L59.2911 90.9651L41.8797 109.39L41.917 98.1329C41.9434 86.1142 40.6517 77.4893 35.0219 72.1756L35.0195 72.1734C30.7652 68.1377 25.9935 66.3189 21.3068 66.538C16.613 66.7575 11.8383 69.0295 7.61038 73.4898C4.52284 76.7603 2.64092 80.1027 1.81259 83.8371C0.981283 87.5849 1.18779 91.8328 2.44931 96.9462L2.51761 97.21L13.307 95.0712L13.2463 94.7995C13.2462 94.7987 13.246 94.7979 13.2458 94.797C12.5079 91.5468 12.3949 89.0673 12.9043 86.9727C13.4206 84.8501 14.5395 83.2734 15.9635 81.7787C17.3851 80.2547 19.2836 79.1842 21.1453 78.8389C23.4625 78.3965 25.5089 79.1207 27.2088 80.7416Z" fill="#C5A053"></path>
      <path fill-rule="evenodd" clip-rule="evenodd" d="M75.4567 74.4584L75.4698 74.4526L75.4567 74.4395V74.4584L73.2356 75.4383C70.778 76.516 68.1626 76.8051 65.4158 76.2663L63.4707 75.8851L63.7861 90.4602L65.2844 90.5259C65.9282 90.5522 66.5327 90.5522 67.1371 90.5522C69.7788 90.5522 72.1054 90.2894 74.2476 89.8162L75.4567 89.5271V74.4584ZM74.1424 88.4901V76.4747L73.7634 76.6419C71.0552 77.8295 68.1671 78.1452 65.1631 77.556C65.163 77.556 65.1632 77.556 65.1631 77.556L64.82 77.4888L65.0734 89.2011L65.338 89.2128C65.3386 89.2128 65.3393 89.2128 65.3399 89.2128C65.9524 89.2378 66.5304 89.2379 67.1375 89.2379C69.685 89.2379 71.9124 88.9852 73.9531 88.5353L74.1424 88.4901Z" fill="#C5A053"></path>
      <path fill-rule="evenodd" clip-rule="evenodd" d="M75.4576 43.6475L75.4707 43.6468L75.4576 43.6337V43.6475L73.7753 43.7388C68.0715 44.0937 62.1048 47.3399 56.5849 53.1489L54.6661 55.1203L49.5011 50.2444L66.4284 32.3577L55.8358 22.3428L29.209 50.5072L56.414 76.214L57.4392 74.5186C59.2265 71.5484 63.2482 66.7383 66.0869 63.7023C69.1229 60.5087 71.7908 58.7607 74.0907 58.4716L75.4576 58.2745V43.6475ZM74.1433 57.1362V45.035L73.8569 45.0505C73.8552 45.0506 73.8534 45.0508 73.8517 45.0509C68.5904 45.38 62.9162 48.3938 57.5376 54.0542L57.5267 54.0656L54.7051 56.9644L47.642 50.2968L64.5703 32.4091L55.8879 24.2007L31.0671 50.4548L56.1324 74.1397L56.3131 73.841C56.3133 73.8406 56.3129 73.8414 56.3131 73.841C58.1745 70.7482 62.2739 65.856 65.127 62.8047L65.1344 62.7968C68.2102 59.5612 71.1442 57.5224 73.9145 57.1692L74.1433 57.1362Z" fill="#C5A053"></path>
      <path d="M90.9722 98.8976V99.6336H90.8145L90.9722 98.8976Z" fill="#CBA653"></path>
    </g>
  </mask>
  <g mask="url(#mask0_209_436)">
    <path d="M344 292H-65V-64H344V292Z" fill="#1E2029"></path>
  </g>
  <defs>
    <clipPath id="clip0_209_436">
      <rect width="255.018" height="234.2" fill="white"></rect>
    </clipPath>
  </defs>
</svg>
