<?xml version="1.0" encoding="UTF-8"?>
<svg xmlns="http://www.w3.org/2000/svg" width="164" height="53" viewBox="0 0 164 53" fill="none">
  <g clip-path="url(#clip0_84_2248)">
    <path d="M124.973 52.2478H133.004L122.607 25.4663H114.488L124.973 52.2478Z" fill="#C5A053"></path>
    <path d="M116.381 40.6514L111.841 52.248H103.758L108.265 40.6514H116.381Z" fill="#C5A053"></path>
    <path d="M56.6154 52.2478H64.643L54.2461 25.4663H46.127L56.6154 52.2478Z" fill="#C5A053"></path>
    <path d="M48.0212 40.6514L43.4818 52.248H35.3945L39.9021 40.6514H48.0212Z" fill="#C5A053"></path>
    <path d="M148.204 31.1733H138.484V25.4663H164.001V31.1733H154.281V52.2478H148.2V31.1733H148.204Z" fill="#C5A053"></path>
    <path d="M13.2399 45.031C8.76026 45.031 6.31933 41.1587 6.31933 37.124C6.31933 33.0893 8.71646 29.1724 13.2399 29.1724C16.5529 29.1724 18.9022 31.3683 19.7862 34.2705H26.233C25.122 28.1941 20.4233 23.2178 13.236 23.2178C4.80222 23.2178 0 30.0329 0 37.124C0 44.2151 4.80221 51.0627 13.2399 51.0627C20.3238 51.0627 25.0066 46.1837 26.1932 40.1804H19.7185C18.7868 42.9731 16.4772 45.031 13.2439 45.031H13.2399Z" fill="#C5A053"></path>
    <path d="M72.8418 23.6235H82.8365C84.6164 23.6235 86.1932 23.8833 87.571 24.4069C88.9447 24.9305 90.1115 25.6368 91.0711 26.5257C92.0307 27.4147 92.7515 28.4538 93.2373 29.6431C93.7231 30.8324 93.966 32.1069 93.966 33.4667C93.966 35.3257 93.5319 37.0346 92.6718 38.6054C91.8078 40.1722 90.4738 41.3655 88.666 42.1733L94.8181 52.2518H86.8463L79.8858 39.9368V52.2518H72.8458V23.6235H72.8418ZM79.8819 29.8947V37.4242H82.3069C83.0634 37.4242 83.7165 37.3146 84.27 37.0873C84.8195 36.8681 85.2893 36.5799 85.6636 36.2268C86.0419 35.8737 86.3246 35.4637 86.5118 34.9929C86.7029 34.522 86.7945 34.039 86.7945 33.5397C86.7945 32.3626 86.4162 31.4615 85.6596 30.8324C84.9031 30.2032 83.7842 29.8907 82.2989 29.8907H79.8739L79.8819 29.8947Z" fill="#C5A053"></path>
    <path d="M42.7427 1.62361H40.9668V0H46.1632V1.62361H44.4032V7.26972H42.7427V1.62361Z" fill="#C5A053"></path>
    <path d="M48.3691 0H50.0973L51.2122 4.42028L52.4267 0H54.1151L55.3375 4.44057L56.4405 0H58.1408L56.1777 7.26972H54.4973L53.2669 2.76826L52.0564 7.26972H50.3362L48.3691 0Z" fill="#C5A053"></path>
    <path d="M60.3672 0H64.6V1.61549H62.0675V2.80885H64.6V4.42434H62.0675V5.65828H64.6V7.27377H60.3672V0Z" fill="#C5A053"></path>
    <path d="M67 0H68.8158L71.3961 4.14427V0H73.0884V7.26972H71.3961L68.7003 2.91844V7.26972H67V0Z" fill="#C5A053"></path>
    <path d="M77.231 1.62361H75.4551V0H80.6515V1.62361H78.8915V7.26972H77.231V1.62361Z" fill="#C5A053"></path>
    <path d="M85.015 3.86419L82.7891 0H84.6367L85.879 2.19187L87.1055 0H88.9412L86.7232 3.88449V7.26972H85.015V3.86419Z" fill="#C5A053"></path>
    <path d="M94.8145 0H98.888V1.61549H96.5147V2.80885H98.888V4.42434H96.5147V7.27377H94.8145V0Z" fill="#C5A053"></path>
    <path d="M103.048 0V7.26972H101.328V0H103.048Z" fill="#C5A053"></path>
    <path d="M105.295 0H107.063L108.48 4.54205L109.858 0H111.606L109.36 7.26972H107.6L105.295 0Z" fill="#C5A053"></path>
    <path d="M113.844 0H118.077V1.61549H115.544V2.80885H118.077V4.42434H115.544V5.65828H118.077V7.27377H113.844V0Z" fill="#C5A053"></path>
  </g>
  <defs>
    <clipPath id="clip0_84_2248">
      <rect width="164" height="52.2478" fill="#C5A053"></rect>
    </clipPath>
  </defs>
</svg>
