<svg id="outlines" width="122" height="42" xmlns="http://www.w3.org/2000/svg" viewBox="0 0 841.89 300"><defs><style>.cls-1{fill:#2a2c2c;}.cls-2{fill:#bdd431;}.cls-3{fill:#bcd631;}</style></defs><title>PHPro</title><g id="original"><path class="cls-1" d="M173,114.1c0,53.52-19.6,64.38-77.63,64.38H62.54v70c0,3.44-.79,4.23-4,4.23H24.92c-3.18,0-4-.79-4-4.23V52.63c0-2.91.8-3.44,4-3.71C48.23,46.81,73.67,46,95.39,46,153.42,46,173,61.11,173,114.1ZM62.54,82.31v64.11H91.16c31.52,0,39.74-4.24,39.74-31.26,0-26.49-8.22-32.85-39.74-32.85Z"></path><path class="cls-1" d="M353.18,47.6c2.65,0,4,1.32,4,4.24V248.43c0,2.91-1.33,4.23-4,4.23H319.54c-2.65,0-4-1.32-4-4.23v-80H227.87v80c0,2.91-1.33,4.23-4,4.23H190.25c-2.65,0-4-1.32-4-4.23V51.84c0-2.92,1.33-4.24,4-4.24h33.64c2.65,0,4,1.32,4,4.24v79.75h87.69V51.84c0-2.92,1.33-4.24,4-4.24Z"></path><path class="cls-2" d="M533.61,114.1c0,53.52-19.61,64.38-77.63,64.38H423.13v70c0,3.44-.8,4.23-4,4.23H385.51c-3.18,0-4-.79-4-4.23V52.63c0-2.91.8-3.44,4-3.71C408.82,46.81,434.26,46,456,46,514,46,533.61,61.11,533.61,114.1ZM423.13,82.31v64.11h28.61c31.53,0,39.74-4.24,39.74-31.26,0-26.49-8.21-32.85-39.74-32.85Z"></path><path class="cls-2" d="M626.61,105.89c2.91.79,4.23,1.85,4.23,5.3v21.72c0,2.65-1.59,4-4.5,4h-24.9c-13.78,0-18.55,2.12-18.55,13.51v98c0,2.91-1.33,4.23-4,4.23H547.39c-2.65,0-4-1.32-4-4.23V140.33c0-33.38,23.85-37.36,48-37.36C599.05,103,617.33,103.77,626.61,105.89Z"></path><path class="cls-2" d="M764.64,178.48c0,60.41-12.45,75.51-67.56,75.51-54.84,0-67.56-15.1-67.56-75.51,0-60.67,12.72-75.51,67.56-75.51C752.19,103,764.64,117.81,764.64,178.48Zm-95.64,0c0,33.38,4,41.6,28.08,41.6,24.38,0,28.35-8.22,28.35-41.6s-4-41.59-28.35-41.59C673,136.89,669,145.1,669,178.48Z"></path><g id="pluske"><path class="cls-3" d="M777.43,107.59a6.39,6.39,0,0,0,6.39,6.39h6.78a6.39,6.39,0,0,0,6.39-6.39V90H777.43Z"></path><path class="cls-3" d="M797,52.9a6.39,6.39,0,0,0-6.39-6.39h-6.78a6.39,6.39,0,0,0-6.39,6.39V70.46H797Z"></path><path class="cls-3" d="M814.6,70.46H797V90H814.6a6.35,6.35,0,0,0,6.34-6.35V76.81A6.34,6.34,0,0,0,814.6,70.46Z"></path><path class="cls-3" d="M759.86,70.46a6.38,6.38,0,0,0-6.38,6.38v6.8A6.38,6.38,0,0,0,759.86,90h17.57V70.46Z"></path></g></g></svg>
